<?xml version="1.0" standalone="no"?>
<!DOCTYPE svg PUBLIC "-//W3C//DTD SVG 20010904//EN"
 "http://www.w3.org/TR/2001/REC-SVG-20010904/DTD/svg10.dtd">
<svg version="1.0" xmlns="http://www.w3.org/2000/svg"
 width="200.000000pt" height="200.000000pt" viewBox="0 0 200.000000 200.000000"
 preserveAspectRatio="xMidYMid meet">
<metadata>
Created by potrace 1.16, written by Peter Selinger 2001-2019
</metadata>
<g transform="translate(0.000000,200.000000) scale(0.100000,-0.100000)"
fill="#000000" stroke="none">
<path d="M0 1000 l0 -1000 1000 0 1000 0 0 1000 0 1000 -1000 0 -1000 0 0
-1000z m715 632 c-2 -2 -15 4 -29 13 -14 10 -26 13 -26 8 0 -13 79 -103 90
-103 12 0 20 54 9 65 -7 7 -8 3 -3 -10 7 -20 7 -20 -14 -1 -12 11 -20 21 -17
24 2 3 0 13 -5 22 -11 20 4 30 45 30 32 0 66 -50 73 -106 3 -27 10 -44 17 -44
8 0 16 -6 18 -12 3 -7 6 1 6 17 l1 30 22 -34 c22 -35 22 -35 28 -10 5 21 7 22
13 6 4 -10 5 -31 2 -45 -3 -15 -2 -20 2 -12 3 8 12 21 20 28 7 7 13 22 13 33
0 40 19 17 30 -38 9 -43 9 -66 0 -96 -6 -21 -10 -40 -8 -40 2 -1 16 -13 32
-27 l29 -25 -6 58 c-6 66 3 73 28 21 13 -27 16 -50 11 -83 -5 -33 -3 -42 5
-34 12 12 8 106 -5 136 -14 31 13 19 34 -15 l20 -33 1 35 1 35 14 -45 c8 -25
13 -63 11 -85 -3 -39 -4 -39 -5 8 -2 52 -16 63 -25 19 -3 -16 -26 -49 -50 -73
l-44 -45 -27 23 c-40 34 -79 34 -142 -3 -43 -25 -55 -29 -52 -16 1 4 -15 24
-36 45 -21 21 -36 40 -33 43 8 9 48 -16 42 -26 -5 -8 40 -50 55 -50 18 0 3 33
-30 65 -35 35 -37 35 -91 27 l-54 -7 45 -32 c54 -37 96 -80 87 -89 -9 -10 -63
15 -84 38 -16 18 -14 18 21 -3 65 -38 36 0 -40 53 -38 26 -105 85 -149 131
-44 46 -91 90 -105 99 -14 9 -22 19 -18 23 11 12 161 17 206 7 35 -8 42 -7 42
5 0 10 12 5 37 -17 25 -23 38 -29 41 -20 3 7 -16 32 -41 54 -49 44 -87 100
-87 129 0 15 7 12 39 -15 22 -18 38 -34 36 -36z"/>
<path d="M963 1468 c-18 -31 -36 -59 -41 -62 -5 -3 -15 13 -21 35 -7 23 -15
39 -17 36 -3 -2 2 -24 10 -48 10 -28 12 -47 6 -53 -17 -17 -11 -43 16 -75 30
-36 55 -41 47 -10 -3 12 6 43 22 74 24 48 26 59 18 107 l-8 53 -32 -57z"/>
</g>
</svg>
